<?xml version="1.0" encoding="UTF-8"?>
<svg version="1.1" xmlns="http://www.w3.org/2000/svg" width="360" height="360">
<path d="M0 0 C118.8 0 237.6 0 360 0 C360 118.8 360 237.6 360 360 C241.2 360 122.4 360 0 360 C0 241.2 0 122.4 0 0 Z " fill="#FEFEFE" transform="translate(0,0)"/>
<path d="M0 0 C1.4005653 -0.00735262 2.80112456 -0.01594229 4.20167542 -0.02566528 C7.98287363 -0.04776631 11.7638532 -0.05081769 15.54510713 -0.04891777 C18.71324052 -0.04879752 21.88132849 -0.05738379 25.04944915 -0.06569529 C32.53071868 -0.08488883 40.01187666 -0.08782822 47.49316406 -0.08105469 C55.18396168 -0.07441896 62.87427909 -0.09726842 70.56497937 -0.13436842 C77.19207303 -0.16516515 83.81901302 -0.17641464 90.44617671 -0.1725316 C94.39362021 -0.17047413 98.34068992 -0.17578665 102.28806496 -0.20042419 C106.00413049 -0.22285445 109.71942098 -0.22068071 113.43549156 -0.20049667 C115.42984131 -0.19551694 117.4242066 -0.21498775 119.41845703 -0.23550415 C130.87011975 -0.12986965 141.63096139 3.22643409 149.94995117 11.41992188 C158.92991158 21.86636775 160.40063872 32.02949628 160.36987305 45.49169922 C160.37722809 46.88255996 160.38581845 48.27341463 160.39553833 49.66426086 C160.41761145 53.41440967 160.42069224 57.16433784 160.41879082 60.91454268 C160.41867046 64.05787307 160.42726082 67.20115782 160.43556833 70.34447539 C160.45475102 77.76679112 160.45770491 85.18899441 160.45092773 92.61132812 C160.44428955 100.24023199 160.46715389 107.86865206 160.50424147 115.49745786 C160.53503848 122.0736169 160.54628775 128.64962109 160.54240465 135.2258507 C160.54034758 139.14198137 160.54565368 143.05773522 160.57029724 146.97379684 C160.5927287 150.65950902 160.59055285 154.34443981 160.57036972 158.03015709 C160.56539087 160.0077987 160.58485887 161.985456 160.6053772 163.96299744 C160.50624149 174.62293617 157.59334561 184.21482051 150.80932617 192.60742188 C140.59336793 202.56583495 129.5991176 204.87103488 115.88989258 204.82397461 C114.47637902 204.82968515 113.06287006 204.83665204 111.64936829 204.84477234 C107.82897742 204.86264497 104.00881698 204.86154639 100.18839693 204.85582995 C96.990304 204.85272907 93.79225476 204.85884062 90.59416807 204.8648687 C83.04443085 204.87889339 75.49480684 204.87737023 67.94506836 204.8659668 C60.17649289 204.85449155 52.4082629 204.8685558 44.63973296 204.89536327 C37.95154802 204.917572 31.26347111 204.92414592 24.57525194 204.91828686 C20.58879658 204.91492793 16.60256254 204.91726088 12.61613846 204.93453789 C8.86487965 204.95008749 5.11412954 204.94596378 1.36289024 204.92723274 C-0.65568984 204.92183286 -2.67429321 204.93600035 -4.69282532 204.95092773 C-16.49104102 204.85599917 -25.51214412 201.71201359 -34.05004883 193.41992188 C-42.44420525 183.36189035 -44.64848166 173.17720223 -44.55175781 160.31640625 C-44.55554882 158.9223018 -44.56105527 157.52820114 -44.56813049 156.1341095 C-44.58200073 152.37572292 -44.57097539 148.61779848 -44.55441928 144.85943794 C-44.54048307 140.90966633 -44.54703856 136.95991922 -44.55055237 133.01013184 C-44.55324776 126.37956368 -44.53983689 119.74917724 -44.51660156 113.11865234 C-44.48999602 105.47390653 -44.48824723 97.82946435 -44.49998993 90.18468809 C-44.51080276 82.80353159 -44.50455322 75.42248395 -44.49043465 68.04133606 C-44.48470516 64.91239317 -44.48473343 61.78353076 -44.48950005 58.65458679 C-44.49430413 54.96408462 -44.4840278 51.27391108 -44.46254539 47.5834713 C-44.45440855 45.59833211 -44.46079117 43.61314967 -44.46774292 41.62800598 C-44.36353563 28.97622438 -41.632056 19.91831286 -33.05004883 10.41992188 C-22.91877869 1.47769148 -13.18778067 -0.0298373 0 0 Z " fill="#2665AF" transform="translate(122.050048828125,77.580078125)"/>
<path d="M0 0 C8.83255901 5.69209359 12.48956154 14.08038932 15 24 C15.24050903 27.30943298 15.24050903 27.30943298 15.22705078 30.76147461 C15.22689972 32.06229477 15.22674866 33.36311493 15.22659302 34.70335388 C15.21638281 36.10301877 15.20595087 37.50268205 15.1953125 38.90234375 C15.19157733 40.34965315 15.18873274 41.79696511 15.18673706 43.24427795 C15.17914024 47.03365187 15.15952625 50.82286985 15.1373291 54.61218262 C15.11678503 58.48687634 15.10771712 62.36159551 15.09765625 66.23632812 C15.07627614 73.82429771 15.04112679 81.41210704 15 89 C6.09 89 -2.82 89 -12 89 C-12.02578125 84.74996094 -12.0515625 80.49992187 -12.078125 76.12109375 C-12.1098305 72.71890187 -12.14548225 69.31680193 -12.18379211 65.91468048 C-12.22307212 62.33071505 -12.25549894 58.74699568 -12.27099609 55.1628418 C-12.28621021 51.70659185 -12.32073768 48.25101178 -12.36830902 44.79506111 C-12.39022927 42.84381949 -12.39246965 40.89238862 -12.39434814 38.94102478 C-12.50662002 32.1045103 -12.79637706 27.5050885 -17 22 C-20.32157801 18.98740599 -22.96120344 17.72618205 -27.375 17.4375 C-32.38130405 17.68274125 -36.40528315 19.50287727 -40 23 C-42.45247063 27.21676765 -43.38108756 30.32710023 -43.43237305 35.18896484 C-43.45216721 36.38975677 -43.47196136 37.59054871 -43.49235535 38.82772827 C-43.49874527 40.10918732 -43.50513519 41.39064636 -43.51171875 42.7109375 C-43.5285811 44.04759353 -43.54673343 45.38423386 -43.56611633 46.72085571 C-43.61345433 50.2224232 -43.64336777 53.72392699 -43.66955566 57.22570801 C-43.69944357 60.80554698 -43.74578604 64.38517116 -43.79101562 67.96484375 C-43.87840826 74.97657873 -43.93848947 81.98779914 -44 89 C-53.24 89 -62.48 89 -72 89 C-72 58.97 -72 28.94 -72 -2 C-62.76 -2 -53.52 -2 -44 -2 C-43.67 0.97 -43.34 3.94 -43 7 C-42.0925 6.113125 -41.185 5.22625 -40.25 4.3125 C-28.5902855 -5.54440724 -13.47618451 -7.08498312 0 0 Z " fill="#F9FBFC" transform="translate(232,157)"/>
<path d="M0 0 C8.91 0 17.82 0 27 0 C27 30.03 27 60.06 27 91 C18.09 91 9.18 91 0 91 C0 60.97 0 30.94 0 0 Z " fill="#F9FAFC" transform="translate(116,155)"/>
<path d="M0 0 C4.17049359 1.63548768 7.10821038 3.57269378 10 7 C11.35698258 11.07094774 11.52387231 14.74353744 11 19 C8.80727567 23.38544865 6.61341775 26.23315916 2 28 C-3.09737148 28.62275579 -7.41916118 28.85628769 -12 26.375 C-15.8092606 21.85150304 -17.60674057 17.85574173 -17.34765625 11.953125 C-16.51449838 7.2724628 -13.69071338 4.58326908 -10.1875 1.625 C-6.37985365 -0.31615304 -4.22575274 -0.52821909 0 0 Z " fill="#F8FAFB" transform="translate(132,112)"/>
<path d="M0 0 C0.33 0.66 0.66 1.32 1 2 C7.27 2 13.54 2 20 2 C20 2.33 20 2.66 20 3 C13.07 3 6.14 3 -1 3 C-1 33.03 -1 63.06 -1 94 C-1.66 94 -2.32 94 -3 94 C-3.495 91.03 -3.495 91.03 -4 88 C-3.34 88 -2.68 88 -2 88 C-2 59.62 -2 31.24 -2 2 C-1.34 2 -0.68 2 0 2 C0 1.34 0 0.68 0 0 Z " fill="#1E61A8" transform="translate(116,152)"/>
<path d="M0 0 C1.13115234 0.01450195 1.13115234 0.01450195 2.28515625 0.02929688 C3.45111328 0.06700195 3.45111328 0.06700195 4.640625 0.10546875 C5.43339844 0.11900391 6.22617188 0.13253906 7.04296875 0.14648438 C8.99248064 0.18171652 10.94164126 0.23552054 12.890625 0.29296875 C12.890625 0.95296875 12.890625 1.61296875 12.890625 2.29296875 C13.550625 2.29296875 14.210625 2.29296875 14.890625 2.29296875 C14.890625 1.63296875 14.890625 0.97296875 14.890625 0.29296875 C15.880625 0.29296875 16.870625 0.29296875 17.890625 0.29296875 C17.890625 1.28296875 17.890625 2.27296875 17.890625 3.29296875 C9.310625 3.29296875 0.730625 3.29296875 -8.109375 3.29296875 C-3.609375 -0.08203125 -3.609375 -0.08203125 0 0 Z " fill="#F2F9F8" transform="translate(124.109375,242.70703125)"/>
<path d="M0 0 C0 0.33 0 0.66 0 1 C-4.95 1.33 -9.9 1.66 -15 2 C-15 2.66 -15 3.32 -15 4 C-16.32 4 -17.64 4 -19 4 C-19 4.66 -19 5.32 -19 6 C-20.32 5.34 -21.64 4.68 -23 4 C-15.23800667 0.07519976 -8.62396205 -0.48661855 0 0 Z " fill="#CDDFEC" transform="translate(221,153)"/>
<path d="M0 0 C2.76276177 0.52268466 5.3260876 1.10869587 8 2 C7.67 2.99 7.34 3.98 7 5 C4.0625 4.1875 4.0625 4.1875 1 3 C0.67 2.01 0.34 1.02 0 0 Z " fill="#3A72B8" transform="translate(96,275)"/>
<path d="M0 0 C0.66 0.33 1.32 0.66 2 1 C1.34 2.65 0.68 4.3 0 6 C-1.98 6 -3.96 6 -6 6 C-4 4 -2 2 0 0 Z " fill="#E5EFF5" transform="translate(196,158)"/>
<path d="M0 0 C1.9375 0.375 1.9375 0.375 4 1 C4.33 1.66 4.66 2.32 5 3 C4.34 3 3.68 3 3 3 C3 3.99 3 4.98 3 6 C2.01 5.67 1.02 5.34 0 5 C-0.33 4.01 -0.66 3.02 -1 2 C-0.67 1.34 -0.34 0.68 0 0 Z " fill="#EFF5F8" transform="translate(233,160)"/>
<path d="M0 0 C2.64 1.32 5.28 2.64 8 4 C7.34 4.66 6.68 5.32 6 6 C1.545 4.02 1.545 4.02 -3 2 C-2.01 1.34 -1.02 0.68 0 0 Z " fill="#2E6BB5" transform="translate(259,81)"/>
<path d="M0 0 C0.33 0.99 0.66 1.98 1 3 C-0.98 3.99 -0.98 3.99 -3 5 C-3 5.66 -3 6.32 -3 7 C-4.32 6.34 -5.64 5.68 -7 5 C-4.69 3.35 -2.38 1.7 0 0 Z " fill="#E0EAF1" transform="translate(269,272)"/>
<path d="M0 0 C6.625 -0.25 6.625 -0.25 10 2 C7.69 2.33 5.38 2.66 3 3 C3 2.34 3 1.68 3 1 C2.01 0.67 1.02 0.34 0 0 Z " fill="#D3DFEA" transform="translate(125,112)"/>
<path d="M0 0 C0.66 0.66 1.32 1.32 2 2 C0.02 4.97 0.02 4.97 -2 8 C-2.99 7.67 -3.98 7.34 -5 7 C-4.360625 6.21625 -3.72125 5.4325 -3.0625 4.625 C-1.01857687 2.20460719 -1.01857687 2.20460719 0 0 Z " fill="#E4EDF4" transform="translate(277,262)"/>
<path d="M0 0 C2.29013653 3.4352048 2.17842973 4.985331 2 9 C1.34 9 0.68 9 0 9 C-0.87890625 2.84765625 -0.87890625 2.84765625 -1 1 C-0.67 0.67 -0.34 0.34 0 0 Z " fill="#3B73B7" transform="translate(218,183)"/>
<path d="M0 0 C1.32 0.66 2.64 1.32 4 2 C1.1875 3.5625 1.1875 3.5625 -2 5 C-2.99 4.67 -3.98 4.34 -5 4 C-3.35 2.68 -1.7 1.36 0 0 Z " fill="#346DB2" transform="translate(93,85)"/>
</svg>
